<svg width="259" height="36" viewBox="0 0 259 36" fill="none" xmlns="http://www.w3.org/2000/svg">
<path d="M9.03711 2.40625L14.75 20.2129L20.4453 2.40625H28.5664V28H22.3789V22.0234L22.9766 9.78906L16.7891 28H12.7109L6.50586 9.77148L7.10352 22.0234V28H0.933594V2.40625H9.03711ZM39.834 19.7031L42.998 8.98047H49.3438L41.5918 31.1816L41.2578 31.9902C40.1562 34.4512 38.2109 35.6816 35.4219 35.6816C34.6484 35.6816 33.834 35.5645 32.9785 35.3301V31.0938H33.752C34.584 31.0938 35.2168 30.9707 35.6504 30.7246C36.0957 30.4902 36.4238 30.0625 36.6348 29.4414L37.1094 28.1758L30.5 8.98047H36.8281L39.834 19.7031ZM73.3379 21.1973C73.3379 20.2949 73.0156 19.5918 72.3711 19.0879C71.7383 18.584 70.6191 18.0625 69.0137 17.5234C67.4082 16.9844 66.0957 16.4629 65.0762 15.959C61.7598 14.3301 60.1016 12.0918 60.1016 9.24414C60.1016 7.82617 60.5117 6.57812 61.332 5.5C62.1641 4.41016 63.3359 3.56641 64.8477 2.96875C66.3594 2.35937 68.0586 2.05469 69.9453 2.05469C71.7852 2.05469 73.4316 2.38281 74.8848 3.03906C76.3496 3.69531 77.4863 4.63281 78.2949 5.85156C79.1035 7.05859 79.5078 8.44141 79.5078 10H73.3555C73.3555 8.95703 73.0332 8.14844 72.3887 7.57422C71.7559 7 70.8945 6.71289 69.8047 6.71289C68.7031 6.71289 67.8301 6.95898 67.1855 7.45117C66.5527 7.93164 66.2363 8.54687 66.2363 9.29688C66.2363 9.95312 66.5879 10.5508 67.291 11.0898C67.9941 11.6172 69.2305 12.168 71 12.7422C72.7695 13.3047 74.2227 13.9141 75.3594 14.5703C78.125 16.1641 79.5078 18.3613 79.5078 21.1621C79.5078 23.4004 78.6641 25.1582 76.9766 26.4355C75.2891 27.7129 72.9746 28.3516 70.0332 28.3516C67.959 28.3516 66.0781 27.9824 64.3906 27.2441C62.7148 26.4941 61.4492 25.4746 60.5938 24.1855C59.75 22.8848 59.3281 21.3906 59.3281 19.7031H65.5156C65.5156 21.0742 65.8672 22.0879 66.5703 22.7441C67.2852 23.3887 68.4395 23.7109 70.0332 23.7109C71.0527 23.7109 71.8555 23.4941 72.4414 23.0605C73.0391 22.6152 73.3379 21.9941 73.3379 21.1973ZM91.6016 28.3516C88.6836 28.3516 86.3223 27.4844 84.5176 25.75C82.7129 24.0039 81.8105 21.7363 81.8105 18.9473V18.4551C81.8105 16.5098 82.168 14.793 82.8828 13.3047C83.6094 11.8164 84.6641 10.668 86.0469 9.85938C87.4297 9.03906 89.0703 8.62891 90.9688 8.62891C93.6406 8.62891 95.75 9.46094 97.2969 11.125C98.8438 12.7773 99.6172 15.0859 99.6172 18.0508V20.3535H87.8398C88.0508 21.4199 88.5137 22.2578 89.2285 22.8672C89.9434 23.4766 90.8691 23.7812 92.0059 23.7812C93.8809 23.7812 95.3457 23.125 96.4004 21.8125L99.1074 25.0117C98.3691 26.0312 97.3203 26.8457 95.9609 27.4551C94.6133 28.0527 93.1602 28.3516 91.6016 28.3516ZM90.9336 13.1992C89.1992 13.1992 88.168 14.3477 87.8398 16.6445H93.8164V16.1875C93.8398 15.2383 93.5996 14.5059 93.0957 13.9902C92.5918 13.4629 91.8711 13.1992 90.9336 13.1992ZM108.266 28H102.324V1H108.266V28ZM113.24 28V13.0938H110.48V8.98047H113.24V7.46875C113.24 5.30078 113.879 3.61914 115.156 2.42383C116.434 1.22852 118.227 0.630859 120.535 0.630859C121.379 0.630859 122.305 0.753906 123.312 1L123.33 5.35938C122.967 5.25391 122.48 5.20117 121.871 5.20117C120.078 5.20117 119.182 5.97461 119.182 7.52148V8.98047H122.891V13.0938H119.182V28H113.24ZM147.412 21.1973C147.412 20.2949 147.09 19.5918 146.445 19.0879C145.812 18.584 144.693 18.0625 143.088 17.5234C141.482 16.9844 140.17 16.4629 139.15 15.959C135.834 14.3301 134.176 12.0918 134.176 9.24414C134.176 7.82617 134.586 6.57812 135.406 5.5C136.238 4.41016 137.41 3.56641 138.922 2.96875C140.434 2.35937 142.133 2.05469 144.02 2.05469C145.859 2.05469 147.506 2.38281 148.959 3.03906C150.424 3.69531 151.561 4.63281 152.369 5.85156C153.178 7.05859 153.582 8.44141 153.582 10H147.43C147.43 8.95703 147.107 8.14844 146.463 7.57422C145.83 7 144.969 6.71289 143.879 6.71289C142.777 6.71289 141.904 6.95898 141.26 7.45117C140.627 7.93164 140.311 8.54687 140.311 9.29688C140.311 9.95312 140.662 10.5508 141.365 11.0898C142.068 11.6172 143.305 12.168 145.074 12.7422C146.844 13.3047 148.297 13.9141 149.434 14.5703C152.199 16.1641 153.582 18.3613 153.582 21.1621C153.582 23.4004 152.738 25.1582 151.051 26.4355C149.363 27.7129 147.049 28.3516 144.107 28.3516C142.033 28.3516 140.152 27.9824 138.465 27.2441C136.789 26.4941 135.523 25.4746 134.668 24.1855C133.824 22.8848 133.402 21.3906 133.402 19.7031H139.59C139.59 21.0742 139.941 22.0879 140.645 22.7441C141.359 23.3887 142.514 23.7109 144.107 23.7109C145.127 23.7109 145.93 23.4941 146.516 23.0605C147.113 22.6152 147.412 21.9941 147.412 21.1973ZM163.373 4.25195V8.98047H166.502V13.0938H163.373V21.7949C163.373 22.5098 163.502 23.0078 163.76 23.2891C164.018 23.5703 164.527 23.7109 165.289 23.7109C165.875 23.7109 166.367 23.6758 166.766 23.6055V27.8418C165.699 28.1816 164.586 28.3516 163.426 28.3516C161.387 28.3516 159.881 27.8711 158.908 26.9102C157.936 25.9492 157.449 24.4902 157.449 22.5332V13.0938H155.023V8.98047H157.449V4.25195H163.373ZM167.574 18.3145C167.574 16.416 167.943 14.7285 168.682 13.252C169.42 11.7637 170.48 10.6211 171.863 9.82422C173.246 9.02734 174.869 8.62891 176.732 8.62891C179.58 8.62891 181.824 9.51367 183.465 11.2832C185.105 13.041 185.926 15.4375 185.926 18.4727V18.6836C185.926 21.6484 185.1 24.0039 183.447 25.75C181.807 27.4844 179.58 28.3516 176.768 28.3516C174.061 28.3516 171.887 27.543 170.246 25.9258C168.605 24.2969 167.721 22.0938 167.592 19.3164L167.574 18.3145ZM173.498 18.6836C173.498 20.4414 173.773 21.7305 174.324 22.5508C174.875 23.3711 175.689 23.7812 176.768 23.7812C178.877 23.7812 179.955 22.1582 180.002 18.9121V18.3145C180.002 14.9043 178.912 13.1992 176.732 13.1992C174.752 13.1992 173.68 14.6699 173.516 17.6113L173.498 18.6836ZM200.041 14.3418L198.09 14.2012C196.227 14.2012 195.031 14.7871 194.504 15.959V28H188.58V8.98047H194.135L194.328 11.4238C195.324 9.56055 196.713 8.62891 198.494 8.62891C199.127 8.62891 199.678 8.69922 200.146 8.83984L200.041 14.3418ZM212.363 28C212.152 27.6133 211.965 27.0449 211.801 26.2949C210.711 27.666 209.188 28.3516 207.23 28.3516C205.438 28.3516 203.914 27.8125 202.66 26.7344C201.406 25.6445 200.779 24.2793 200.779 22.6387C200.779 20.5762 201.541 19.0176 203.064 17.9629C204.588 16.9082 206.803 16.3809 209.709 16.3809H211.537V15.3789C211.537 13.6328 210.781 12.7598 209.27 12.7598C207.863 12.7598 207.16 13.4512 207.16 14.834H201.236C201.236 12.9941 202.016 11.5 203.574 10.3516C205.145 9.20313 207.143 8.62891 209.568 8.62891C211.994 8.62891 213.91 9.2207 215.316 10.4043C216.723 11.5879 217.443 13.2109 217.479 15.2734V23.6934C217.502 25.4395 217.771 26.7754 218.287 27.7012V28H212.363ZM208.654 24.1328C209.393 24.1328 210.002 23.9746 210.482 23.6582C210.975 23.3418 211.326 22.9844 211.537 22.5859V19.5449H209.814C207.752 19.5449 206.721 20.4707 206.721 22.3223C206.721 22.8613 206.902 23.3008 207.266 23.6406C207.629 23.9688 208.092 24.1328 208.654 24.1328ZM220.08 18.3496C220.08 16.4277 220.396 14.7285 221.029 13.252C221.662 11.7754 222.57 10.6387 223.754 9.8418C224.938 9.0332 226.314 8.62891 227.885 8.62891C229.865 8.62891 231.412 9.29688 232.525 10.6328L232.736 8.98047H238.115V27.2793C238.115 28.9551 237.723 30.4082 236.938 31.6387C236.164 32.8809 235.039 33.8301 233.562 34.4863C232.086 35.1543 230.375 35.4883 228.43 35.4883C227.035 35.4883 225.682 35.2246 224.369 34.6973C223.068 34.1699 222.072 33.4844 221.381 32.6406L223.859 29.1602C224.961 30.4609 226.414 31.1113 228.219 31.1113C230.844 31.1113 232.156 29.7637 232.156 27.0684V26.4707C231.02 27.7246 229.584 28.3516 227.85 28.3516C225.529 28.3516 223.654 27.4668 222.225 25.6973C220.795 23.916 220.08 21.5371 220.08 18.5605V18.3496ZM226.021 18.7188C226.021 20.2773 226.314 21.5137 226.9 22.4277C227.486 23.3301 228.307 23.7812 229.361 23.7812C230.639 23.7812 231.57 23.3535 232.156 22.498V14.5C231.582 13.6328 230.662 13.1992 229.396 13.1992C228.342 13.1992 227.516 13.6738 226.918 14.623C226.32 15.5605 226.021 16.9258 226.021 18.7188ZM250.684 28.3516C247.766 28.3516 245.404 27.4844 243.6 25.75C241.795 24.0039 240.893 21.7363 240.893 18.9473V18.4551C240.893 16.5098 241.25 14.793 241.965 13.3047C242.691 11.8164 243.746 10.668 245.129 9.85938C246.512 9.03906 248.152 8.62891 250.051 8.62891C252.723 8.62891 254.832 9.46094 256.379 11.125C257.926 12.7773 258.699 15.0859 258.699 18.0508V20.3535H246.922C247.133 21.4199 247.596 22.2578 248.311 22.8672C249.025 23.4766 249.951 23.7812 251.088 23.7812C252.963 23.7812 254.428 23.125 255.482 21.8125L258.189 25.0117C257.451 26.0312 256.402 26.8457 255.043 27.4551C253.695 28.0527 252.242 28.3516 250.684 28.3516ZM250.016 13.1992C248.281 13.1992 247.25 14.3477 246.922 16.6445H252.898V16.1875C252.922 15.2383 252.682 14.5059 252.178 13.9902C251.674 13.4629 250.953 13.1992 250.016 13.1992Z" fill="white" fill-opacity="0.9"/>
</svg>
